{"title":"Pokemon.S17E16.A.Jolting.Switcheroo.720p.HDTV.x264-Insane098","uid":10117470,"size":256962094,"categoryP":"video","categoryS":"tv_shows","magnet":"?xt=urn:btih:506bcb9a46146c9b55a3983c2d9e95f53e3247a4&amp;dn=Pokemon.S17E16.A.Jolting.Switcheroo.720p.HDTV.x264-Insane098&amp;tr=udp%3A%2F%2Ftracker.openbittorrent.com%3A80&amp;tr=udp%3A%2F%2Fopen.demonii.com%3A1337&amp;tr=udp%3A%2F%2Ftracker.coppersurfer.tk%3A6969&amp;tr=udp%3A%2F%2Fexodus.desync.com%3A6969","seeders":1,"leechers":0,"uploader":"098765432","files":-1,"time":1399617235,"description":"General\nComplete name                            : Pokemon.S17E16.A.Jolting.Switcheroo.720p.HDTV.x264-Insane098.mp4\nFormat                                   : MPEG-4\nFormat profile                           : Base Media / Version 2\nCodec ID                                 : mp42\nFile size                                : 245 MiB\nDuration                                 : 21mn 18s\nOverall bit rate mode                    : Variable\nOverall bit rate                         : 1 608 Kbps\n\nVideo\nID                                       : 1\nFormat                                   : AVC\nFormat/Info                              : Advanced Video Codec\nFormat profile                           : &lt;a class=&quot;__cf_email__&quot; href=&quot;/cdn-cgi/l/email-protection&quot; data-cfemail=&quot;5c14353b341c106f726d&quot;&gt;[email&amp;#160;protected]&lt;/a&gt;&lt;script cf-hash='f9e31' type=&quot;text/javascript&quot;&gt;\n/* &lt;![CDATA[ */!function(){try{var t=&quot;currentScript&quot;in document?document.currentScript:function(){for(var t=document.getElementsByTagName(&quot;script&quot;),e=t.length;e--;)if(t[e].getAttribute(&quot;cf-hash&quot;))return t[e]}();if(t&amp;&amp;t.previousSibling){var e,r,n,i,c=t.previousSibling,a=c.getAttribute(&quot;data-cfemail&quot;);if(a){for(e=&quot;&quot;,r=parseInt(a.substr(0,2),16),n=2;a.length-n;n+=2)i=parseInt(a.substr(n,2),16)^r,e+=String.fromCharCode(i);e=document.createTextNode(e),c.parentNode.replaceChild(e,c)}}}catch(u){}}();/* ]]&gt; */&lt;/script&gt;\nFormat settings, CABAC                   : Yes\nFormat settings, ReFrames                : 1 frame\nCodec ID                                 : avc1\nCodec ID/Info                            : Advanced Video Coding\nDuration                                 : 21mn 18s\nBit rate                                 : 1 413 Kbps\nMaximum bit rate                         : 4 780 Kbps\nWidth                                    : 1 280 pixels\nHeight                                   : 720 pixels\nDisplay aspect ratio                     : 16:9\nFrame rate mode                          : Constant\nFrame rate                               : 29.970 fps\nColor space                              : YUV\nChroma subsampling                       : 4:2:0\nBit depth                                : 8 bits\nScan type                                : Progressive\nBits/(Pixel*Frame)                       : 0.051\nStream size                              : 215 MiB (88%)\n\nAudio\nID                                       : 2\nFormat                                   : AAC\nFormat/Info                              : Advanced Audio Codec\nFormat profile                           : LC\nCodec ID                                 : 40\nDuration                                 : 21mn 18s\nBit rate mode                            : Variable\nBit rate                                 : 192 Kbps\nMaximum bit rate                         : 203 Kbps\nChannel count                            : 2 channels\nChannel positions                        : Front: L R\nSampling rate                            : 44.1 KHz\nCompression mode                         : Lossy\nStream size                              : 29.3 MiB (12%)","torrent":{"xt":"urn:btih:506bcb9a46146c9b55a3983c2d9e95f53e3247a4","amp;dn":"Pokemon.S17E16.A.Jolting.Switcheroo.720p.HDTV.x264-Insane098","amp;tr":["udp%3A%2F%2Ftracker.openbittorrent.com%3A80","udp%3A%2F%2Fopen.demonii.com%3A1337","udp%3A%2F%2Ftracker.coppersurfer.tk%3A6969","udp%3A%2F%2Fexodus.desync.com%3A6969"],"infoHash":"506bcb9a46146c9b55a3983c2d9e95f53e3247a4","infoHashBuffer":{"type":"Buffer","data":[80,107,203,154,70,20,108,155,85,163,152,60,45,158,149,245,62,50,71,164]},"announce":[],"urlList":[]}}